<svg xmlns="http://www.w3.org/2000/svg" width="1000" height="520" viewBox="0 0 1000 520">
  <rect width="1000" height="520" rx="16" fill="#f6f8fa"/>
  <rect x="36" y="32" width="928" height="456" rx="10" fill="#ffffff" stroke="#d0d7de"/>
  <rect x="36" y="32" width="928" height="58" rx="10" fill="#24292f"/>
  <text x="70" y="68" font-family="Arial, sans-serif" font-size="22" font-weight="700" fill="#ffffff">Open a pull request</text>
  <rect x="68" y="116" width="864" height="78" rx="8" fill="#dafbe1" stroke="#4ac26b"/>
  <text x="92" y="148" font-family="Arial, sans-serif" font-size="16" font-weight="700" fill="#1a7f37">Your branch had recent pushes</text>
  <rect x="702" y="132" width="198" height="44" rx="7" fill="#1f883d"/>
  <text x="723" y="160" font-family="Arial, sans-serif" font-size="16" font-weight="700" fill="#ffffff">Compare and pull request</text>
  <text x="68" y="238" font-family="Arial, sans-serif" font-size="14" fill="#57606a">base</text>
  <rect x="108" y="212" width="128" height="40" rx="7" fill="#f6f8fa" stroke="#d0d7de"/>
  <text x="135" y="237" font-family="Arial, sans-serif" font-size="15" font-weight="700" fill="#1f2328">main</text>
  <text x="254" y="238" font-family="Arial, sans-serif" font-size="20" fill="#57606a">←</text>
  <text x="290" y="238" font-family="Arial, sans-serif" font-size="14" fill="#57606a">compare</text>
  <rect x="356" y="212" width="260" height="40" rx="7" fill="#f6f8fa" stroke="#d0d7de"/>
  <text x="376" y="237" font-family="Arial, sans-serif" font-size="15" font-weight="700" fill="#1f2328">add-your-username-profile</text>
  <rect x="68" y="278" width="620" height="48" rx="7" fill="#ffffff" stroke="#d0d7de"/>
  <text x="88" y="308" font-family="Arial, sans-serif" font-size="17" fill="#1f2328">Add your-username to Developer Wall</text>
  <rect x="68" y="344" width="620" height="88" rx="7" fill="#ffffff" stroke="#d0d7de"/>
  <text x="88" y="376" font-family="Arial, sans-serif" font-size="15" fill="#57606a">Complete the checklist</text>
  <text x="88" y="404" font-family="Arial, sans-serif" font-size="15" fill="#57606a">Confirm that your profile is safe to publish</text>
  <rect x="724" y="370" width="184" height="46" rx="7" fill="#1f883d"/>
  <text x="751" y="399" font-family="Arial, sans-serif" font-size="16" font-weight="700" fill="#ffffff">Create pull request</text>
  <circle cx="810" cy="230" r="24" fill="#0969da"/>
  <text x="803" y="238" font-family="Arial, sans-serif" font-size="22" font-weight="700" fill="#ffffff">1</text>
  <text x="850" y="225" font-family="Arial, sans-serif" font-size="16" font-weight="700" fill="#1f2328">Check branches</text>
  <text x="850" y="248" font-family="Arial, sans-serif" font-size="14" fill="#57606a">main is the base</text>
  <circle cx="736" cy="302" r="24" fill="#0969da"/>
  <text x="729" y="310" font-family="Arial, sans-serif" font-size="22" font-weight="700" fill="#ffffff">2</text>
  <path d="M712 302H692" stroke="#0969da" stroke-width="3"/>
  <text x="774" y="297" font-family="Arial, sans-serif" font-size="16" font-weight="700" fill="#1f2328">Add a clear title</text>
  <text x="774" y="320" font-family="Arial, sans-serif" font-size="14" fill="#57606a">Then complete the form</text>
</svg>
